<svg width="296" height="97" viewBox="0 0 296 97" fill="none" xmlns="http://www.w3.org/2000/svg">
<path d="M277.08 52.2479C280.367 52.2479 282.237 49.5336 282.237 44.8922C282.237 41.9336 282.01 38.3508 281.443 35.0665L294.76 14.2479H287.053L279.772 27.3308L279.318 26.0008C277.278 20.1922 274.417 14.2479 268.353 14.2479C266.427 14.2479 264.868 14.7365 263.593 15.7136C260.76 18.0208 260.76 22.3908 260.76 23.7479H263.338C263.508 22.5536 264.188 19.2151 267.135 19.2151C272.093 19.2151 274.36 27.8194 276.06 34.3879C273.51 40.2508 272.093 44.4851 272.093 46.7379C272.093 49.3979 273.68 52.2479 277.08 52.2479Z" fill="#45BF55"/>
<path d="M277.202 76.331C277.946 75.2291 278.965 74.3338 280.26 73.6451C281.582 72.9565 283.083 72.6121 284.764 72.6121C286.72 72.6121 288.483 73.0942 290.053 74.0584C291.651 75.0225 292.904 76.3999 293.813 78.1905C294.75 79.9536 295.218 82.0059 295.218 84.3474C295.218 86.6889 294.75 88.7688 293.813 90.5869C292.904 92.3775 291.651 93.7687 290.053 94.7604C288.483 95.7521 286.72 96.248 284.764 96.248C283.056 96.248 281.555 95.9174 280.26 95.2563C278.993 94.5676 277.973 93.686 277.202 92.6117V95.8761H271.417V65.2982H277.202V76.331ZM289.309 84.3474C289.309 82.97 289.02 81.7855 288.441 80.7938C287.89 79.7745 287.147 79.0032 286.21 78.4798C285.301 77.9564 284.309 77.6946 283.235 77.6946C282.188 77.6946 281.196 77.9701 280.26 78.5211C279.351 79.0445 278.607 79.8158 278.028 80.8351C277.477 81.8543 277.202 83.0527 277.202 84.43C277.202 85.8074 277.477 87.0057 278.028 88.025C278.607 89.0443 279.351 89.8294 280.26 90.3803C281.196 90.9037 282.188 91.1654 283.235 91.1654C284.309 91.1654 285.301 90.89 286.21 90.339C287.147 89.7881 287.89 89.003 288.441 87.9837C289.02 86.9644 289.309 85.7523 289.309 84.3474Z" fill="white"/>
<path d="M265.709 72.984V95.8761H259.883V92.9836C259.139 93.9753 258.161 94.7604 256.949 95.3389C255.764 95.8899 254.47 96.1653 253.065 96.1653C251.274 96.1653 249.69 95.7934 248.313 95.0497C246.935 94.2783 245.847 93.1626 245.048 91.7026C244.277 90.2151 243.891 88.452 243.891 86.4135V72.984H249.676V85.587C249.676 87.4052 250.131 88.8101 251.04 89.8018C251.949 90.766 253.189 91.2481 254.759 91.2481C256.357 91.2481 257.61 90.766 258.519 89.8018C259.428 88.8101 259.883 87.4052 259.883 85.587V72.984H265.709Z" fill="white"/>
<path d="M238.404 67.0338V95.8761H232.619V83.6036H220.264V95.8761H214.479V67.0338H220.264V78.893H232.619V67.0338H238.404Z" fill="white"/>
<path d="M205.877 35.3712C205.877 30.7431 206.786 26.6386 208.604 23.0574C210.477 19.4762 212.984 16.7214 216.125 14.7931C219.32 12.8647 222.874 11.9006 226.786 11.9006C230.202 11.9006 233.177 12.5893 235.711 13.9666C238.301 15.344 240.367 17.0795 241.909 19.1731V12.6444H253.562V58.4285H241.909V51.7344C240.422 53.8832 238.356 55.6738 235.711 57.1062C233.122 58.4836 230.119 59.1723 226.703 59.1723C222.846 59.1723 219.32 58.1806 216.125 56.1972C212.984 54.2137 210.477 51.4314 208.604 47.8502C206.786 44.2139 205.877 40.0542 205.877 35.3712ZM241.909 35.5364C241.909 32.7266 241.358 30.3299 240.256 28.3465C239.154 26.308 237.667 24.7653 235.794 23.7185C233.92 22.6166 231.909 22.0656 229.761 22.0656C227.612 22.0656 225.629 22.5891 223.81 23.6359C221.992 24.6827 220.505 26.2253 219.348 28.2639C218.246 30.2473 217.695 32.6164 217.695 35.3712C217.695 38.1259 218.246 40.5501 219.348 42.6437C220.505 44.6823 221.992 46.2525 223.81 47.3544C225.684 48.4563 227.667 49.0072 229.761 49.0072C231.909 49.0072 233.92 48.4838 235.794 47.437C237.667 46.3351 239.154 44.7924 240.256 42.809C241.358 40.7705 241.909 38.3463 241.909 35.5364Z" fill="white"/>
<path d="M179.113 11.9833C184.733 11.9833 189.251 13.7188 192.666 17.1898C196.137 20.6057 197.873 25.399 197.873 31.5696V58.4286H186.303V33.1399C186.303 29.5587 185.394 26.8314 183.576 24.9582C181.758 23.0299 179.278 22.0657 176.138 22.0657C172.997 22.0657 170.491 23.0299 168.617 24.9582C166.799 26.8314 165.89 29.5587 165.89 33.1399V58.4286H154.32V33.1399C154.32 29.5587 153.411 26.8314 151.593 24.9582C149.775 23.0299 147.295 22.0657 144.155 22.0657C140.96 22.0657 138.425 23.0299 136.552 24.9582C134.734 26.8314 133.825 29.5587 133.825 33.1399V58.4286H122.255V12.6444H133.825V18.1815C135.312 16.2532 137.213 14.738 139.527 13.6361C141.896 12.5342 144.486 11.9833 147.295 11.9833C150.877 11.9833 154.072 12.7546 156.882 14.2973C159.692 15.7848 161.868 17.9336 163.411 20.7434C164.898 18.0989 167.047 15.9777 169.857 14.3799C172.722 12.7822 175.807 11.9833 179.113 11.9833Z" fill="white"/>
<path d="M63.2696 35.3712C63.2696 30.7431 64.1787 26.6386 65.9968 23.0574C67.87 19.4762 70.3769 16.7214 73.5173 14.7931C76.7128 12.8647 80.2665 11.9006 84.1782 11.9006C87.5942 11.9006 90.5693 12.5893 93.1037 13.9666C95.6932 15.344 97.7592 17.0795 99.3019 19.1731V12.6444H110.955V58.4285H99.3019V51.7344C97.8143 53.8832 95.7483 55.6738 93.1037 57.1062C90.5142 58.4836 87.5115 59.1723 84.0956 59.1723C80.2389 59.1723 76.7128 58.1806 73.5173 56.1972C70.3769 54.2137 67.87 51.4314 65.9968 47.8502C64.1787 44.2139 63.2696 40.0542 63.2696 35.3712ZM99.3019 35.5364C99.3019 32.7266 98.7509 30.3299 97.649 28.3465C96.5471 26.308 95.0596 24.7653 93.1863 23.7185C91.3131 22.6166 89.3021 22.0656 87.1534 22.0656C85.0047 22.0656 83.0212 22.5891 81.2031 23.6359C79.385 24.6827 77.8974 26.2253 76.7404 28.2639C75.6385 30.2473 75.0875 32.6164 75.0875 35.3712C75.0875 38.1259 75.6385 40.5501 76.7404 42.6437C77.8974 44.6823 79.385 46.2525 81.2031 47.3544C83.0763 48.4563 85.0598 49.0072 87.1534 49.0072C89.3021 49.0072 91.3131 48.4838 93.1863 47.437C95.0596 46.3351 96.5471 44.7924 97.649 42.809C98.7509 40.7705 99.3019 38.3463 99.3019 35.5364Z" fill="white"/>
<path d="M42.9743 18.0988C41.652 15.6746 39.8339 13.8289 37.5199 12.5617C35.2059 11.2945 32.5062 10.6609 29.4209 10.6609C26.005 10.6609 22.9747 11.4323 20.3302 12.9749C17.6856 14.5176 15.6195 16.7214 14.1319 19.5864C12.6444 22.4513 11.9006 25.757 11.9006 29.5035C11.9006 33.3602 12.6444 36.721 14.1319 39.5859C15.6746 42.4509 17.7958 44.6547 20.4954 46.1974C23.1951 47.74 26.3355 48.5114 29.9167 48.5114C34.3243 48.5114 37.9331 47.3544 40.7429 45.0404C43.5528 42.6713 45.3985 39.3931 46.28 35.2059H26.4457V26.3631H57.6847V36.4455C56.9134 40.4675 55.2605 44.1864 52.7262 47.6023C50.1918 51.0182 46.9136 53.773 42.8917 55.8666C38.9248 57.9051 34.4621 58.9244 29.5035 58.9244C23.9389 58.9244 18.8977 57.6847 14.3799 55.2054C9.91715 52.6711 6.39105 49.1725 3.80157 44.7098C1.26719 40.2471 0 35.1783 0 29.5035C0 23.8287 1.26719 18.7599 3.80157 14.2972C6.39105 9.77941 9.91715 6.28086 14.3799 3.80157C18.8977 1.26719 23.9113 0 29.4209 0C35.9221 0 41.5694 1.59776 46.3627 4.79329C51.1559 7.93372 54.4617 12.3689 56.2798 18.0988H42.9743Z" fill="white"/>
</svg>
