<svg id="visual" viewBox="0 0 900 600" width="900" height="600" xmlns="http://www.w3.org/2000/svg" xmlns:xlink="http://www.w3.org/1999/xlink" version="1.1"><rect x="0" y="0" width="900" height="600" fill="#ffffff"></rect><path d="M0 159L129 98L257 170L386 207L514 155L643 180L771 117L900 182L900 601L771 601L643 601L514 601L386 601L257 601L129 601L0 601Z" fill="#3fe355"></path><path d="M0 214L129 270L257 275L386 206L514 286L643 253L771 280L900 226L900 601L771 601L643 601L514 601L386 601L257 601L129 601L0 601Z" fill="#3cda51"></path><path d="M0 244L129 175L257 191L386 234L514 192L643 274L771 258L900 241L900 601L771 601L643 601L514 601L386 601L257 601L129 601L0 601Z" fill="#39d14e"></path><path d="M0 217L129 317L257 328L386 294L514 299L643 311L771 235L900 255L900 601L771 601L643 601L514 601L386 601L257 601L129 601L0 601Z" fill="#37c84a"></path><path d="M0 258L129 361L257 258L386 341L514 340L643 315L771 356L900 319L900 601L771 601L643 601L514 601L386 601L257 601L129 601L0 601Z" fill="#34bf46"></path><path d="M0 374L129 401L257 363L386 292L514 394L643 308L771 356L900 321L900 601L771 601L643 601L514 601L386 601L257 601L129 601L0 601Z" fill="#31b643"></path><path d="M0 418L129 380L257 363L386 394L514 373L643 417L771 404L900 430L900 601L771 601L643 601L514 601L386 601L257 601L129 601L0 601Z" fill="#2fae3f"></path><path d="M0 403L129 437L257 424L386 388L514 442L643 436L771 396L900 409L900 601L771 601L643 601L514 601L386 601L257 601L129 601L0 601Z" fill="#2ca53c"></path><path d="M0 475L129 426L257 457L386 418L514 455L643 413L771 445L900 486L900 601L771 601L643 601L514 601L386 601L257 601L129 601L0 601Z" fill="#299d38"></path><path d="M0 479L129 498L257 473L386 462L514 486L643 496L771 493L900 499L900 601L771 601L643 601L514 601L386 601L257 601L129 601L0 601Z" fill="#269435"></path><path d="M0 524L129 509L257 515L386 524L514 500L643 532L771 537L900 528L900 601L771 601L643 601L514 601L386 601L257 601L129 601L0 601Z" fill="#248c31"></path><path d="M0 547L129 571L257 557L386 533L514 543L643 553L771 531L900 543L900 601L771 601L643 601L514 601L386 601L257 601L129 601L0 601Z" fill="#21842e"></path></svg>