<svg id="visual" viewBox="0 0 900 600" width="900" height="600" xmlns="http://www.w3.org/2000/svg" xmlns:xlink="http://www.w3.org/1999/xlink" version="1.1"><path d="M0 132L15 129.3C30 126.7 60 121.3 90 127C120 132.7 150 149.3 180 137.2C210 125 240 84 270 68.7C300 53.3 330 63.7 360 60.8C390 58 420 42 450 54C480 66 510 106 540 113.3C570 120.7 600 95.3 630 97.3C660 99.3 690 128.7 720 127.7C750 126.7 780 95.3 810 94.8C840 94.3 870 124.7 885 139.8L900 155L900 0L885 0C870 0 840 0 810 0C780 0 750 0 720 0C690 0 660 0 630 0C600 0 570 0 540 0C510 0 480 0 450 0C420 0 390 0 360 0C330 0 300 0 270 0C240 0 210 0 180 0C150 0 120 0 90 0C60 0 30 0 15 0L0 0Z" fill="#0066FF" stroke-linecap="round" stroke-linejoin="miter"></path></svg>